# xmcd CD database file
#
# Track frame offsets:
#	150
#	18375
#	37375
#	49270
#	63200
#	89577
#	101317
#	118650
#	134355
#	154532
#	172200
#
# Disc length: 2489 seconds
#
# Revision: 0
# Processed by: cddbd v1.5PL3 Copyright (c) Steve Scherf et al.
# Submitted via: CdAid (MTCDDB.DLL V2003.12.21)
#
DISCID=9609b70b
DTITLE=Cindy Lou Harrington - Language Of The Heart
DYEAR=1993
DGENRE=Country
TTITLE0=You Don't Know What You Threw Away
TTITLE1=Language Of The Heart
TTITLE2=Another Saturday Night Alone
TTITLE3=The Mosquito Song
TTITLE4=The Rain
TTITLE5=Ya Gotta Learn To Live With Pain
TTITLE6=I Can't Believe You've Gotten Over Me
TTITLE7=Valentine's Day Blues
TTITLE8=Can't Help But Cry
TTITLE9=Fantasize
TTITLE10=Cop A Buzz
EXTD=ID3G:   2 YEAR: 1993
EXTT0=
EXTT1=
EXTT2=
EXTT3=
EXTT4=
EXTT5=
EXTT6=
EXTT7=
EXTT8=
EXTT9=
EXTT10=
PLAYORDER=
